<svg width="1022" height="368" viewBox="0 0 1022 368" fill="none" xmlns="http://www.w3.org/2000/svg">
<rect width="511" height="184" transform="scale(2)" fill="white"/>
<path d="M512.293 128.7C512.684 129.104 513.316 129.125 513.707 128.747L520.067 122.595C520.457 122.218 520.457 121.585 520.067 121.181C519.677 120.778 519.044 120.757 518.654 121.134L513 126.602L507.346 120.757C506.956 120.354 506.323 120.333 505.933 120.71C505.543 121.088 505.543 121.721 505.933 122.124L512.293 128.7ZM512.001 67.95V127.983L513.999 128.05V68.0167L512.001 67.95Z" fill="#828282"/>
<path d="M339.293 128.707C339.683 129.098 340.317 129.098 340.707 128.707L347.071 122.343C347.462 121.953 347.462 121.319 347.071 120.929C346.681 120.538 346.047 120.538 345.657 120.929L340 126.586L334.343 120.929C333.953 120.538 333.319 120.538 332.929 120.929C332.538 121.319 332.538 121.953 332.929 122.343L339.293 128.707ZM339 112V128H341V112H339Z" fill="#828282"/>
<path d="M488 68V82L340 112V128" stroke="#828282"/>
<path d="M688.707 128.707C688.317 129.098 687.683 129.098 687.293 128.707L680.929 122.343C680.538 121.953 680.538 121.319 680.929 120.929C681.319 120.538 681.953 120.538 682.343 120.929L688 126.586L693.657 120.929C694.047 120.538 694.681 120.538 695.071 120.929C695.462 121.319 695.462 121.953 695.071 122.343L688.707 128.707ZM689 112V128H687V112H689Z" fill="#828282"/>
<path d="M546 68V82L688 112V128" stroke="#828282"/>
<rect x="448" y="140" width="130" height="208" fill="#FFFAF5"/>
<path d="M469.77 196.789H464.285V212H462.047V196.789H456.574V194.938H469.77V196.789ZM474.129 200.855C475.09 199.676 476.34 199.086 477.879 199.086C480.559 199.086 481.91 200.598 481.934 203.621V212H479.766V203.609C479.758 202.695 479.547 202.02 479.133 201.582C478.727 201.145 478.09 200.926 477.223 200.926C476.52 200.926 475.902 201.113 475.371 201.488C474.84 201.863 474.426 202.355 474.129 202.965V212H471.961V194H474.129V200.855ZM490.441 212.234C488.723 212.234 487.324 211.672 486.246 210.547C485.168 209.414 484.629 207.902 484.629 206.012V205.613C484.629 204.355 484.867 203.234 485.344 202.25C485.828 201.258 486.5 200.484 487.359 199.93C488.227 199.367 489.164 199.086 490.172 199.086C491.82 199.086 493.102 199.629 494.016 200.715C494.93 201.801 495.387 203.355 495.387 205.379V206.281H486.797C486.828 207.531 487.191 208.543 487.887 209.316C488.59 210.082 489.48 210.465 490.559 210.465C491.324 210.465 491.973 210.309 492.504 209.996C493.035 209.684 493.5 209.27 493.898 208.754L495.223 209.785C494.16 211.418 492.566 212.234 490.441 212.234ZM490.172 200.867C489.297 200.867 488.562 201.188 487.969 201.828C487.375 202.461 487.008 203.352 486.867 204.5H493.219V204.336C493.156 203.234 492.859 202.383 492.328 201.781C491.797 201.172 491.078 200.867 490.172 200.867ZM465.023 236.637C465.023 236.051 464.801 235.598 464.355 235.277C463.918 234.949 463.148 234.668 462.047 234.434C460.953 234.199 460.082 233.918 459.434 233.59C458.793 233.262 458.316 232.871 458.004 232.418C457.699 231.965 457.547 231.426 457.547 230.801C457.547 229.762 457.984 228.883 458.859 228.164C459.742 227.445 460.867 227.086 462.234 227.086C463.672 227.086 464.836 227.457 465.727 228.199C466.625 228.941 467.074 229.891 467.074 231.047H464.895C464.895 230.453 464.641 229.941 464.133 229.512C463.633 229.082 463 228.867 462.234 228.867C461.445 228.867 460.828 229.039 460.383 229.383C459.938 229.727 459.715 230.176 459.715 230.73C459.715 231.254 459.922 231.648 460.336 231.914C460.75 232.18 461.496 232.434 462.574 232.676C463.66 232.918 464.539 233.207 465.211 233.543C465.883 233.879 466.379 234.285 466.699 234.762C467.027 235.23 467.191 235.805 467.191 236.484C467.191 237.617 466.738 238.527 465.832 239.215C464.926 239.895 463.75 240.234 462.305 240.234C461.289 240.234 460.391 240.055 459.609 239.695C458.828 239.336 458.215 238.836 457.77 238.195C457.332 237.547 457.113 236.848 457.113 236.098H459.281C459.32 236.824 459.609 237.402 460.148 237.832C460.695 238.254 461.414 238.465 462.305 238.465C463.125 238.465 463.781 238.301 464.273 237.973C464.773 237.637 465.023 237.191 465.023 236.637ZM477.844 238.746C477 239.738 475.762 240.234 474.129 240.234C472.777 240.234 471.746 239.844 471.035 239.062C470.332 238.273 469.977 237.109 469.969 235.57V227.32H472.137V235.512C472.137 237.434 472.918 238.395 474.48 238.395C476.137 238.395 477.238 237.777 477.785 236.543V227.32H479.953V240H477.891L477.844 238.746ZM493.992 233.801C493.992 235.738 493.547 237.297 492.656 238.477C491.766 239.648 490.57 240.234 489.07 240.234C487.469 240.234 486.23 239.668 485.355 238.535L485.25 240H483.258V222H485.426V228.715C486.301 227.629 487.508 227.086 489.047 227.086C490.586 227.086 491.793 227.668 492.668 228.832C493.551 229.996 493.992 231.59 493.992 233.613V233.801ZM491.824 233.555C491.824 232.078 491.539 230.938 490.969 230.133C490.398 229.328 489.578 228.926 488.508 228.926C487.078 228.926 486.051 229.59 485.426 230.918V236.402C486.09 237.73 487.125 238.395 488.531 238.395C489.57 238.395 490.379 237.992 490.957 237.188C491.535 236.383 491.824 235.172 491.824 233.555ZM504.117 236.637C504.117 236.051 503.895 235.598 503.449 235.277C503.012 234.949 502.242 234.668 501.141 234.434C500.047 234.199 499.176 233.918 498.527 233.59C497.887 233.262 497.41 232.871 497.098 232.418C496.793 231.965 496.641 231.426 496.641 230.801C496.641 229.762 497.078 228.883 497.953 228.164C498.836 227.445 499.961 227.086 501.328 227.086C502.766 227.086 503.93 227.457 504.82 228.199C505.719 228.941 506.168 229.891 506.168 231.047H503.988C503.988 230.453 503.734 229.941 503.227 229.512C502.727 229.082 502.094 228.867 501.328 228.867C500.539 228.867 499.922 229.039 499.477 229.383C499.031 229.727 498.809 230.176 498.809 230.73C498.809 231.254 499.016 231.648 499.43 231.914C499.844 232.18 500.59 232.434 501.668 232.676C502.754 232.918 503.633 233.207 504.305 233.543C504.977 233.879 505.473 234.285 505.793 234.762C506.121 235.23 506.285 235.805 506.285 236.484C506.285 237.617 505.832 238.527 504.926 239.215C504.02 239.895 502.844 240.234 501.398 240.234C500.383 240.234 499.484 240.055 498.703 239.695C497.922 239.336 497.309 238.836 496.863 238.195C496.426 237.547 496.207 236.848 496.207 236.098H498.375C498.414 236.824 498.703 237.402 499.242 237.832C499.789 238.254 500.508 238.465 501.398 238.465C502.219 238.465 502.875 238.301 503.367 237.973C503.867 237.637 504.117 237.191 504.117 236.637ZM512.051 224.25V227.32H514.418V228.996H512.051V236.859C512.051 237.367 512.156 237.75 512.367 238.008C512.578 238.258 512.938 238.383 513.445 238.383C513.695 238.383 514.039 238.336 514.477 238.242V240C513.906 240.156 513.352 240.234 512.812 240.234C511.844 240.234 511.113 239.941 510.621 239.355C510.129 238.77 509.883 237.938 509.883 236.859V228.996H507.574V227.32H509.883V224.25H512.051ZM523.09 229.266C522.762 229.211 522.406 229.184 522.023 229.184C520.602 229.184 519.637 229.789 519.129 231V240H516.961V227.32H519.07L519.105 228.785C519.816 227.652 520.824 227.086 522.129 227.086C522.551 227.086 522.871 227.141 523.09 227.25V229.266ZM527.449 240H525.281V227.32H527.449V240ZM525.105 223.957C525.105 223.605 525.211 223.309 525.422 223.066C525.641 222.824 525.961 222.703 526.383 222.703C526.805 222.703 527.125 222.824 527.344 223.066C527.562 223.309 527.672 223.605 527.672 223.957C527.672 224.309 527.562 224.602 527.344 224.836C527.125 225.07 526.805 225.188 526.383 225.188C525.961 225.188 525.641 225.07 525.422 224.836C525.211 224.602 525.105 224.309 525.105 223.957ZM532.98 227.32L533.051 228.914C534.02 227.695 535.285 227.086 536.848 227.086C539.527 227.086 540.879 228.598 540.902 231.621V240H538.734V231.609C538.727 230.695 538.516 230.02 538.102 229.582C537.695 229.145 537.059 228.926 536.191 228.926C535.488 228.926 534.871 229.113 534.34 229.488C533.809 229.863 533.395 230.355 533.098 230.965V240H530.93V227.32H532.98ZM543.656 233.555C543.656 231.578 544.113 230.008 545.027 228.844C545.941 227.672 547.152 227.086 548.66 227.086C550.207 227.086 551.414 227.633 552.281 228.727L552.387 227.32H554.367V239.695C554.367 241.336 553.879 242.629 552.902 243.574C551.934 244.52 550.629 244.992 548.988 244.992C548.074 244.992 547.18 244.797 546.305 244.406C545.43 244.016 544.762 243.48 544.301 242.801L545.426 241.5C546.355 242.648 547.492 243.223 548.836 243.223C549.891 243.223 550.711 242.926 551.297 242.332C551.891 241.738 552.188 240.902 552.188 239.824V238.734C551.32 239.734 550.137 240.234 548.637 240.234C547.152 240.234 545.949 239.637 545.027 238.441C544.113 237.246 543.656 235.617 543.656 233.555ZM545.836 233.801C545.836 235.23 546.129 236.355 546.715 237.176C547.301 237.988 548.121 238.395 549.176 238.395C550.543 238.395 551.547 237.773 552.188 236.531V230.742C551.523 229.531 550.527 228.926 549.199 228.926C548.145 228.926 547.32 229.336 546.727 230.156C546.133 230.977 545.836 232.191 545.836 233.801Z" fill="black"/>
<path d="M459.024 266.088C459.616 266.616 460.28 267.048 461.016 267.384C461.768 267.704 462.528 267.864 463.296 267.864C464.256 267.864 464.984 267.68 465.48 267.312C465.976 266.944 466.224 266.456 466.224 265.848C466.224 265.528 466.16 265.256 466.032 265.032C465.904 264.808 465.72 264.616 465.48 264.456C465.256 264.28 464.976 264.12 464.64 263.976C464.32 263.832 463.968 263.688 463.584 263.544L461.448 262.608C461.032 262.448 460.624 262.248 460.224 262.008C459.824 261.768 459.464 261.48 459.144 261.144C458.824 260.808 458.568 260.416 458.376 259.968C458.184 259.52 458.088 259.008 458.088 258.432C458.088 257.808 458.224 257.232 458.496 256.704C458.768 256.16 459.144 255.688 459.624 255.288C460.104 254.888 460.672 254.576 461.328 254.352C462 254.128 462.736 254.016 463.536 254.016C464.496 254.016 465.408 254.2 466.272 254.568C467.152 254.92 467.92 255.4 468.576 256.008L467.136 257.784C466.608 257.368 466.056 257.04 465.48 256.8C464.904 256.56 464.256 256.44 463.536 256.44C462.72 256.44 462.072 256.608 461.592 256.944C461.128 257.264 460.896 257.712 460.896 258.288C460.896 258.592 460.968 258.856 461.112 259.08C461.256 259.288 461.448 259.48 461.688 259.656C461.944 259.816 462.232 259.96 462.552 260.088C462.888 260.216 463.232 260.352 463.584 260.496L465.648 261.384C466.144 261.576 466.6 261.8 467.016 262.056C467.432 262.312 467.792 262.608 468.096 262.944C468.4 263.28 468.632 263.672 468.792 264.12C468.968 264.552 469.056 265.056 469.056 265.632C469.056 266.272 468.92 266.872 468.648 267.432C468.392 267.992 468.016 268.488 467.52 268.92C467.024 269.336 466.416 269.672 465.696 269.928C464.976 270.168 464.16 270.288 463.248 270.288C462.144 270.288 461.088 270.088 460.08 269.688C459.072 269.288 458.176 268.72 457.392 267.984L459.024 266.088ZM474.255 262.08C474.255 262.96 474.327 263.76 474.471 264.48C474.631 265.2 474.847 265.816 475.119 266.328C475.407 266.824 475.751 267.208 476.151 267.48C476.567 267.752 477.031 267.888 477.543 267.888C478.039 267.888 478.487 267.752 478.887 267.48C479.303 267.208 479.647 266.824 479.919 266.328C480.207 265.816 480.423 265.2 480.567 264.48C480.727 263.76 480.807 262.96 480.807 262.08C480.807 260.32 480.511 258.936 479.919 257.928C479.343 256.92 478.551 256.416 477.543 256.416C476.519 256.416 475.711 256.92 475.119 257.928C474.543 258.936 474.255 260.32 474.255 262.08ZM483.999 273.672C483.727 273.8 483.423 273.896 483.087 273.96C482.751 274.04 482.375 274.08 481.959 274.08C480.487 274.08 479.271 273.712 478.311 272.976C477.367 272.24 476.671 271.296 476.223 270.144C475.503 269.984 474.847 269.68 474.255 269.232C473.663 268.784 473.151 268.216 472.719 267.528C472.303 266.84 471.983 266.04 471.759 265.128C471.535 264.2 471.423 263.184 471.423 262.08C471.423 260.816 471.567 259.688 471.855 258.696C472.159 257.688 472.575 256.84 473.103 256.152C473.647 255.464 474.295 254.936 475.047 254.568C475.799 254.2 476.631 254.016 477.543 254.016C478.455 254.016 479.287 254.2 480.039 254.568C480.791 254.936 481.431 255.464 481.959 256.152C482.503 256.84 482.919 257.688 483.207 258.696C483.511 259.688 483.663 260.816 483.663 262.08C483.663 264.24 483.255 266.016 482.439 267.408C481.623 268.784 480.527 269.672 479.151 270.072C479.423 270.68 479.839 271.12 480.399 271.392C480.959 271.68 481.583 271.824 482.271 271.824C482.511 271.824 482.735 271.792 482.943 271.728C483.151 271.68 483.335 271.616 483.495 271.536L483.999 273.672ZM487.661 254.304H490.421V267.648H497.789V270H487.661V254.304Z" fill="#B82629"/>
<path d="M493.907 172.371C494.499 172.851 495.139 173.243 495.827 173.547C496.531 173.851 497.227 174.003 497.915 174.003C498.731 174.003 499.323 173.867 499.691 173.595C500.075 173.323 500.267 172.955 500.267 172.491C500.267 172.251 500.211 172.043 500.099 171.867C499.987 171.691 499.827 171.539 499.619 171.411C499.411 171.267 499.155 171.139 498.851 171.027C498.563 170.899 498.227 170.763 497.843 170.619L495.827 169.755C495.395 169.595 494.971 169.387 494.555 169.131C494.155 168.875 493.803 168.579 493.499 168.243C493.195 167.891 492.947 167.491 492.755 167.043C492.579 166.579 492.491 166.059 492.491 165.483C492.491 164.843 492.627 164.243 492.899 163.683C493.187 163.107 493.579 162.611 494.075 162.195C494.587 161.763 495.195 161.427 495.899 161.187C496.603 160.947 497.379 160.827 498.227 160.827C499.187 160.827 500.115 161.003 501.011 161.355C501.907 161.707 502.715 162.219 503.435 162.891L501.635 165.123C501.091 164.723 500.555 164.419 500.027 164.211C499.499 163.987 498.899 163.875 498.227 163.875C497.539 163.875 497.003 164.003 496.619 164.259C496.251 164.499 496.067 164.843 496.067 165.291C496.067 165.771 496.307 166.131 496.787 166.371C497.267 166.611 497.883 166.867 498.635 167.139L500.531 167.955C501.571 168.339 502.387 168.867 502.979 169.539C503.587 170.211 503.891 171.099 503.891 172.203C503.891 172.859 503.755 173.483 503.483 174.075C503.211 174.651 502.819 175.163 502.307 175.611C501.795 176.043 501.163 176.395 500.411 176.667C499.659 176.923 498.795 177.051 497.819 177.051C496.763 177.051 495.715 176.867 494.675 176.499C493.651 176.115 492.715 175.547 491.867 174.795L493.907 172.371ZM512.186 163.875C511.354 163.875 510.706 164.315 510.242 165.195C509.778 166.075 509.546 167.299 509.546 168.867C509.546 170.451 509.778 171.707 510.242 172.635C510.706 173.547 511.354 174.003 512.186 174.003C513.002 174.003 513.642 173.547 514.106 172.635C514.586 171.707 514.826 170.451 514.826 168.867C514.826 167.299 514.586 166.075 514.106 165.195C513.642 164.315 513.002 163.875 512.186 163.875ZM518.978 180.531C518.706 180.675 518.378 180.795 517.994 180.891C517.61 180.987 517.17 181.035 516.674 181.035C515.906 181.035 515.202 180.931 514.562 180.723C513.922 180.515 513.338 180.227 512.81 179.859C512.298 179.491 511.85 179.043 511.466 178.515C511.082 178.003 510.77 177.443 510.53 176.835C509.122 176.435 508.002 175.555 507.17 174.195C506.338 172.819 505.922 171.043 505.922 168.867C505.922 167.587 506.074 166.451 506.378 165.459C506.682 164.451 507.106 163.611 507.65 162.939C508.194 162.251 508.85 161.731 509.618 161.379C510.386 161.011 511.242 160.827 512.186 160.827C513.114 160.827 513.962 161.011 514.73 161.379C515.498 161.731 516.154 162.251 516.698 162.939C517.242 163.627 517.666 164.475 517.97 165.483C518.274 166.475 518.426 167.603 518.426 168.867C518.426 170.931 518.05 172.643 517.298 174.003C516.546 175.347 515.522 176.251 514.226 176.715C514.498 177.275 514.898 177.659 515.426 177.867C515.97 178.091 516.522 178.203 517.082 178.203C517.322 178.203 517.546 178.171 517.754 178.107C517.978 178.043 518.178 177.971 518.354 177.891L518.978 180.531ZM522.016 161.115H525.544V173.787H532.504V176.763H522.016V161.115Z" fill="#B82629"/>
<rect x="270" y="140" width="130" height="208" fill="#FFFAF5"/>
<path d="M285.008 204.395C283.078 203.84 281.672 203.16 280.789 202.355C279.914 201.543 279.477 200.543 279.477 199.355C279.477 198.012 280.012 196.902 281.082 196.027C282.16 195.145 283.559 194.703 285.277 194.703C286.449 194.703 287.492 194.93 288.406 195.383C289.328 195.836 290.039 196.461 290.539 197.258C291.047 198.055 291.301 198.926 291.301 199.871H289.039C289.039 198.84 288.711 198.031 288.055 197.445C287.398 196.852 286.473 196.555 285.277 196.555C284.168 196.555 283.301 196.801 282.676 197.293C282.059 197.777 281.75 198.453 281.75 199.32C281.75 200.016 282.043 200.605 282.629 201.09C283.223 201.566 284.227 202.004 285.641 202.402C287.062 202.801 288.172 203.242 288.969 203.727C289.773 204.203 290.367 204.762 290.75 205.402C291.141 206.043 291.336 206.797 291.336 207.664C291.336 209.047 290.797 210.156 289.719 210.992C288.641 211.82 287.199 212.234 285.395 212.234C284.223 212.234 283.129 212.012 282.113 211.566C281.098 211.113 280.312 210.496 279.758 209.715C279.211 208.934 278.938 208.047 278.938 207.055H281.199C281.199 208.086 281.578 208.902 282.336 209.504C283.102 210.098 284.121 210.395 285.395 210.395C286.582 210.395 287.492 210.152 288.125 209.668C288.758 209.184 289.074 208.523 289.074 207.688C289.074 206.852 288.781 206.207 288.195 205.754C287.609 205.293 286.547 204.84 285.008 204.395ZM296.832 196.25V199.32H299.199V200.996H296.832V208.859C296.832 209.367 296.938 209.75 297.148 210.008C297.359 210.258 297.719 210.383 298.227 210.383C298.477 210.383 298.82 210.336 299.258 210.242V212C298.688 212.156 298.133 212.234 297.594 212.234C296.625 212.234 295.895 211.941 295.402 211.355C294.91 210.77 294.664 209.938 294.664 208.859V200.996H292.355V199.32H294.664V196.25H296.832ZM309.57 212C309.445 211.75 309.344 211.305 309.266 210.664C308.258 211.711 307.055 212.234 305.656 212.234C304.406 212.234 303.379 211.883 302.574 211.18C301.777 210.469 301.379 209.57 301.379 208.484C301.379 207.164 301.879 206.141 302.879 205.414C303.887 204.68 305.301 204.312 307.121 204.312H309.23V203.316C309.23 202.559 309.004 201.957 308.551 201.512C308.098 201.059 307.43 200.832 306.547 200.832C305.773 200.832 305.125 201.027 304.602 201.418C304.078 201.809 303.816 202.281 303.816 202.836H301.637C301.637 202.203 301.859 201.594 302.305 201.008C302.758 200.414 303.367 199.945 304.133 199.602C304.906 199.258 305.754 199.086 306.676 199.086C308.137 199.086 309.281 199.453 310.109 200.188C310.938 200.914 311.367 201.918 311.398 203.199V209.035C311.398 210.199 311.547 211.125 311.844 211.812V212H309.57ZM305.973 210.348C306.652 210.348 307.297 210.172 307.906 209.82C308.516 209.469 308.957 209.012 309.23 208.449V205.848H307.531C304.875 205.848 303.547 206.625 303.547 208.18C303.547 208.859 303.773 209.391 304.227 209.773C304.68 210.156 305.262 210.348 305.973 210.348ZM320.926 201.266C320.598 201.211 320.242 201.184 319.859 201.184C318.438 201.184 317.473 201.789 316.965 203V212H314.797V199.32H316.906L316.941 200.785C317.652 199.652 318.66 199.086 319.965 199.086C320.387 199.086 320.707 199.141 320.926 199.25V201.266ZM326.457 196.25V199.32H328.824V200.996H326.457V208.859C326.457 209.367 326.562 209.75 326.773 210.008C326.984 210.258 327.344 210.383 327.852 210.383C328.102 210.383 328.445 210.336 328.883 210.242V212C328.312 212.156 327.758 212.234 327.219 212.234C326.25 212.234 325.52 211.941 325.027 211.355C324.535 210.77 324.289 209.938 324.289 208.859V200.996H321.98V199.32H324.289V196.25H326.457ZM284.727 238.465C285.5 238.465 286.176 238.23 286.754 237.762C287.332 237.293 287.652 236.707 287.715 236.004H289.766C289.727 236.73 289.477 237.422 289.016 238.078C288.555 238.734 287.938 239.258 287.164 239.648C286.398 240.039 285.586 240.234 284.727 240.234C283 240.234 281.625 239.66 280.602 238.512C279.586 237.355 279.078 235.777 279.078 233.777V233.414C279.078 232.18 279.305 231.082 279.758 230.121C280.211 229.16 280.859 228.414 281.703 227.883C282.555 227.352 283.559 227.086 284.715 227.086C286.137 227.086 287.316 227.512 288.254 228.363C289.199 229.215 289.703 230.32 289.766 231.68H287.715C287.652 230.859 287.34 230.188 286.777 229.664C286.223 229.133 285.535 228.867 284.715 228.867C283.613 228.867 282.758 229.266 282.148 230.062C281.547 230.852 281.246 231.996 281.246 233.496V233.906C281.246 235.367 281.547 236.492 282.148 237.281C282.75 238.07 283.609 238.465 284.727 238.465ZM300.031 240C299.906 239.75 299.805 239.305 299.727 238.664C298.719 239.711 297.516 240.234 296.117 240.234C294.867 240.234 293.84 239.883 293.035 239.18C292.238 238.469 291.84 237.57 291.84 236.484C291.84 235.164 292.34 234.141 293.34 233.414C294.348 232.68 295.762 232.312 297.582 232.312H299.691V231.316C299.691 230.559 299.465 229.957 299.012 229.512C298.559 229.059 297.891 228.832 297.008 228.832C296.234 228.832 295.586 229.027 295.062 229.418C294.539 229.809 294.277 230.281 294.277 230.836H292.098C292.098 230.203 292.32 229.594 292.766 229.008C293.219 228.414 293.828 227.945 294.594 227.602C295.367 227.258 296.215 227.086 297.137 227.086C298.598 227.086 299.742 227.453 300.57 228.188C301.398 228.914 301.828 229.918 301.859 231.199V237.035C301.859 238.199 302.008 239.125 302.305 239.812V240H300.031ZM296.434 238.348C297.113 238.348 297.758 238.172 298.367 237.82C298.977 237.469 299.418 237.012 299.691 236.449V233.848H297.992C295.336 233.848 294.008 234.625 294.008 236.18C294.008 236.859 294.234 237.391 294.688 237.773C295.141 238.156 295.723 238.348 296.434 238.348ZM315.969 233.801C315.969 235.73 315.527 237.285 314.645 238.465C313.762 239.645 312.566 240.234 311.059 240.234C309.52 240.234 308.309 239.746 307.426 238.77V244.875H305.258V227.32H307.238L307.344 228.727C308.227 227.633 309.453 227.086 311.023 227.086C312.547 227.086 313.75 227.66 314.633 228.809C315.523 229.957 315.969 231.555 315.969 233.602V233.801ZM313.801 233.555C313.801 232.125 313.496 230.996 312.887 230.168C312.277 229.34 311.441 228.926 310.379 228.926C309.066 228.926 308.082 229.508 307.426 230.672V236.73C308.074 237.887 309.066 238.465 310.402 238.465C311.441 238.465 312.266 238.055 312.875 237.234C313.492 236.406 313.801 235.18 313.801 233.555ZM321.676 224.25V227.32H324.043V228.996H321.676V236.859C321.676 237.367 321.781 237.75 321.992 238.008C322.203 238.258 322.562 238.383 323.07 238.383C323.32 238.383 323.664 238.336 324.102 238.242V240C323.531 240.156 322.977 240.234 322.438 240.234C321.469 240.234 320.738 239.941 320.246 239.355C319.754 238.77 319.508 237.938 319.508 236.859V228.996H317.199V227.32H319.508V224.25H321.676ZM334.414 238.746C333.57 239.738 332.332 240.234 330.699 240.234C329.348 240.234 328.316 239.844 327.605 239.062C326.902 238.273 326.547 237.109 326.539 235.57V227.32H328.707V235.512C328.707 237.434 329.488 238.395 331.051 238.395C332.707 238.395 333.809 237.777 334.355 236.543V227.32H336.523V240H334.461L334.414 238.746ZM345.957 229.266C345.629 229.211 345.273 229.184 344.891 229.184C343.469 229.184 342.504 229.789 341.996 231V240H339.828V227.32H341.938L341.973 228.785C342.684 227.652 343.691 227.086 344.996 227.086C345.418 227.086 345.738 227.141 345.957 227.25V229.266ZM352.988 240.234C351.27 240.234 349.871 239.672 348.793 238.547C347.715 237.414 347.176 235.902 347.176 234.012V233.613C347.176 232.355 347.414 231.234 347.891 230.25C348.375 229.258 349.047 228.484 349.906 227.93C350.773 227.367 351.711 227.086 352.719 227.086C354.367 227.086 355.648 227.629 356.562 228.715C357.477 229.801 357.934 231.355 357.934 233.379V234.281H349.344C349.375 235.531 349.738 236.543 350.434 237.316C351.137 238.082 352.027 238.465 353.105 238.465C353.871 238.465 354.52 238.309 355.051 237.996C355.582 237.684 356.047 237.27 356.445 236.754L357.77 237.785C356.707 239.418 355.113 240.234 352.988 240.234ZM352.719 228.867C351.844 228.867 351.109 229.188 350.516 229.828C349.922 230.461 349.555 231.352 349.414 232.5H355.766V232.336C355.703 231.234 355.406 230.383 354.875 229.781C354.344 229.172 353.625 228.867 352.719 228.867ZM279.125 261.555C279.125 259.578 279.582 258.008 280.496 256.844C281.41 255.672 282.621 255.086 284.129 255.086C285.676 255.086 286.883 255.633 287.75 256.727L287.855 255.32H289.836V267.695C289.836 269.336 289.348 270.629 288.371 271.574C287.402 272.52 286.098 272.992 284.457 272.992C283.543 272.992 282.648 272.797 281.773 272.406C280.898 272.016 280.23 271.48 279.77 270.801L280.895 269.5C281.824 270.648 282.961 271.223 284.305 271.223C285.359 271.223 286.18 270.926 286.766 270.332C287.359 269.738 287.656 268.902 287.656 267.824V266.734C286.789 267.734 285.605 268.234 284.105 268.234C282.621 268.234 281.418 267.637 280.496 266.441C279.582 265.246 279.125 263.617 279.125 261.555ZM281.305 261.801C281.305 263.23 281.598 264.355 282.184 265.176C282.77 265.988 283.59 266.395 284.645 266.395C286.012 266.395 287.016 265.773 287.656 264.531V258.742C286.992 257.531 285.996 256.926 284.668 256.926C283.613 256.926 282.789 257.336 282.195 258.156C281.602 258.977 281.305 260.191 281.305 261.801ZM299.246 257.266C298.918 257.211 298.562 257.184 298.18 257.184C296.758 257.184 295.793 257.789 295.285 259V268H293.117V255.32H295.227L295.262 256.785C295.973 255.652 296.98 255.086 298.285 255.086C298.707 255.086 299.027 255.141 299.246 255.25V257.266ZM300.441 261.543C300.441 260.301 300.684 259.184 301.168 258.191C301.66 257.199 302.34 256.434 303.207 255.895C304.082 255.355 305.078 255.086 306.195 255.086C307.922 255.086 309.316 255.684 310.379 256.879C311.449 258.074 311.984 259.664 311.984 261.648V261.801C311.984 263.035 311.746 264.145 311.27 265.129C310.801 266.105 310.125 266.867 309.242 267.414C308.367 267.961 307.359 268.234 306.219 268.234C304.5 268.234 303.105 267.637 302.035 266.441C300.973 265.246 300.441 263.664 300.441 261.695V261.543ZM302.621 261.801C302.621 263.207 302.945 264.336 303.594 265.188C304.25 266.039 305.125 266.465 306.219 266.465C307.32 266.465 308.195 266.035 308.844 265.176C309.492 264.309 309.816 263.098 309.816 261.543C309.816 260.152 309.484 259.027 308.82 258.168C308.164 257.301 307.289 256.867 306.195 256.867C305.125 256.867 304.262 257.293 303.605 258.145C302.949 258.996 302.621 260.215 302.621 261.801ZM322.531 266.746C321.688 267.738 320.449 268.234 318.816 268.234C317.465 268.234 316.434 267.844 315.723 267.062C315.02 266.273 314.664 265.109 314.656 263.57V255.32H316.824V263.512C316.824 265.434 317.605 266.395 319.168 266.395C320.824 266.395 321.926 265.777 322.473 264.543V255.32H324.641V268H322.578L322.531 266.746ZM338.656 261.801C338.656 263.73 338.215 265.285 337.332 266.465C336.449 267.645 335.254 268.234 333.746 268.234C332.207 268.234 330.996 267.746 330.113 266.77V272.875H327.945V255.32H329.926L330.031 256.727C330.914 255.633 332.141 255.086 333.711 255.086C335.234 255.086 336.438 255.66 337.32 256.809C338.211 257.957 338.656 259.555 338.656 261.602V261.801ZM336.488 261.555C336.488 260.125 336.184 258.996 335.574 258.168C334.965 257.34 334.129 256.926 333.066 256.926C331.754 256.926 330.77 257.508 330.113 258.672V264.73C330.762 265.887 331.754 266.465 333.09 266.465C334.129 266.465 334.953 266.055 335.562 265.234C336.18 264.406 336.488 263.18 336.488 261.555Z" fill="black"/>
<path d="M336.65 180.797C334.951 179.289 333.608 177.547 332.62 175.571C331.649 173.595 331.164 171.376 331.164 168.915C331.164 166.454 331.649 164.235 332.62 162.259C333.608 160.283 334.951 158.541 336.65 157.033L338.782 158.723C337.239 160.231 336.113 161.8 335.402 163.429C334.709 165.041 334.362 166.87 334.362 168.915C334.362 169.938 334.449 170.908 334.622 171.827C334.795 172.728 335.055 173.595 335.402 174.427C335.766 175.259 336.225 176.056 336.78 176.819C337.335 177.599 338.002 178.362 338.782 179.107L336.65 180.797Z" fill="#D55E00"/>
<rect x="626" y="140" width="130" height="208" fill="#FFFAF5"/>
<path d="M645.625 204.113H638.23V210.16H646.82V212H635.98V194.938H646.703V196.789H638.23V202.273H645.625V204.113ZM651.332 199.32L651.402 200.914C652.371 199.695 653.637 199.086 655.199 199.086C657.879 199.086 659.23 200.598 659.254 203.621V212H657.086V203.609C657.078 202.695 656.867 202.02 656.453 201.582C656.047 201.145 655.41 200.926 654.543 200.926C653.84 200.926 653.223 201.113 652.691 201.488C652.16 201.863 651.746 202.355 651.449 202.965V212H649.281V199.32H651.332ZM661.996 205.555C661.996 203.609 662.457 202.047 663.379 200.867C664.301 199.68 665.508 199.086 667 199.086C668.484 199.086 669.66 199.594 670.527 200.609V194H672.695V212H670.703L670.598 210.641C669.73 211.703 668.523 212.234 666.977 212.234C665.508 212.234 664.309 211.633 663.379 210.43C662.457 209.227 661.996 207.656 661.996 205.719V205.555ZM664.164 205.801C664.164 207.238 664.461 208.363 665.055 209.176C665.648 209.988 666.469 210.395 667.516 210.395C668.891 210.395 669.895 209.777 670.527 208.543V202.719C669.879 201.523 668.883 200.926 667.539 200.926C666.477 200.926 665.648 201.336 665.055 202.156C664.461 202.977 664.164 204.191 664.164 205.801ZM640.727 238.465C641.5 238.465 642.176 238.23 642.754 237.762C643.332 237.293 643.652 236.707 643.715 236.004H645.766C645.727 236.73 645.477 237.422 645.016 238.078C644.555 238.734 643.938 239.258 643.164 239.648C642.398 240.039 641.586 240.234 640.727 240.234C639 240.234 637.625 239.66 636.602 238.512C635.586 237.355 635.078 235.777 635.078 233.777V233.414C635.078 232.18 635.305 231.082 635.758 230.121C636.211 229.16 636.859 228.414 637.703 227.883C638.555 227.352 639.559 227.086 640.715 227.086C642.137 227.086 643.316 227.512 644.254 228.363C645.199 229.215 645.703 230.32 645.766 231.68H643.715C643.652 230.859 643.34 230.188 642.777 229.664C642.223 229.133 641.535 228.867 640.715 228.867C639.613 228.867 638.758 229.266 638.148 230.062C637.547 230.852 637.246 231.996 637.246 233.496V233.906C637.246 235.367 637.547 236.492 638.148 237.281C638.75 238.07 639.609 238.465 640.727 238.465ZM656.031 240C655.906 239.75 655.805 239.305 655.727 238.664C654.719 239.711 653.516 240.234 652.117 240.234C650.867 240.234 649.84 239.883 649.035 239.18C648.238 238.469 647.84 237.57 647.84 236.484C647.84 235.164 648.34 234.141 649.34 233.414C650.348 232.68 651.762 232.312 653.582 232.312H655.691V231.316C655.691 230.559 655.465 229.957 655.012 229.512C654.559 229.059 653.891 228.832 653.008 228.832C652.234 228.832 651.586 229.027 651.062 229.418C650.539 229.809 650.277 230.281 650.277 230.836H648.098C648.098 230.203 648.32 229.594 648.766 229.008C649.219 228.414 649.828 227.945 650.594 227.602C651.367 227.258 652.215 227.086 653.137 227.086C654.598 227.086 655.742 227.453 656.57 228.188C657.398 228.914 657.828 229.918 657.859 231.199V237.035C657.859 238.199 658.008 239.125 658.305 239.812V240H656.031ZM652.434 238.348C653.113 238.348 653.758 238.172 654.367 237.82C654.977 237.469 655.418 237.012 655.691 236.449V233.848H653.992C651.336 233.848 650.008 234.625 650.008 236.18C650.008 236.859 650.234 237.391 650.688 237.773C651.141 238.156 651.723 238.348 652.434 238.348ZM671.969 233.801C671.969 235.73 671.527 237.285 670.645 238.465C669.762 239.645 668.566 240.234 667.059 240.234C665.52 240.234 664.309 239.746 663.426 238.77V244.875H661.258V227.32H663.238L663.344 228.727C664.227 227.633 665.453 227.086 667.023 227.086C668.547 227.086 669.75 227.66 670.633 228.809C671.523 229.957 671.969 231.555 671.969 233.602V233.801ZM669.801 233.555C669.801 232.125 669.496 230.996 668.887 230.168C668.277 229.34 667.441 228.926 666.379 228.926C665.066 228.926 664.082 229.508 663.426 230.672V236.73C664.074 237.887 665.066 238.465 666.402 238.465C667.441 238.465 668.266 238.055 668.875 237.234C669.492 236.406 669.801 235.18 669.801 233.555ZM677.676 224.25V227.32H680.043V228.996H677.676V236.859C677.676 237.367 677.781 237.75 677.992 238.008C678.203 238.258 678.562 238.383 679.07 238.383C679.32 238.383 679.664 238.336 680.102 238.242V240C679.531 240.156 678.977 240.234 678.438 240.234C677.469 240.234 676.738 239.941 676.246 239.355C675.754 238.77 675.508 237.938 675.508 236.859V228.996H673.199V227.32H675.508V224.25H677.676ZM690.414 238.746C689.57 239.738 688.332 240.234 686.699 240.234C685.348 240.234 684.316 239.844 683.605 239.062C682.902 238.273 682.547 237.109 682.539 235.57V227.32H684.707V235.512C684.707 237.434 685.488 238.395 687.051 238.395C688.707 238.395 689.809 237.777 690.355 236.543V227.32H692.523V240H690.461L690.414 238.746ZM701.957 229.266C701.629 229.211 701.273 229.184 700.891 229.184C699.469 229.184 698.504 229.789 697.996 231V240H695.828V227.32H697.938L697.973 228.785C698.684 227.652 699.691 227.086 700.996 227.086C701.418 227.086 701.738 227.141 701.957 227.25V229.266ZM708.988 240.234C707.27 240.234 705.871 239.672 704.793 238.547C703.715 237.414 703.176 235.902 703.176 234.012V233.613C703.176 232.355 703.414 231.234 703.891 230.25C704.375 229.258 705.047 228.484 705.906 227.93C706.773 227.367 707.711 227.086 708.719 227.086C710.367 227.086 711.648 227.629 712.562 228.715C713.477 229.801 713.934 231.355 713.934 233.379V234.281H705.344C705.375 235.531 705.738 236.543 706.434 237.316C707.137 238.082 708.027 238.465 709.105 238.465C709.871 238.465 710.52 238.309 711.051 237.996C711.582 237.684 712.047 237.27 712.445 236.754L713.77 237.785C712.707 239.418 711.113 240.234 708.988 240.234ZM708.719 228.867C707.844 228.867 707.109 229.188 706.516 229.828C705.922 230.461 705.555 231.352 705.414 232.5H711.766V232.336C711.703 231.234 711.406 230.383 710.875 229.781C710.344 229.172 709.625 228.867 708.719 228.867ZM635.125 261.555C635.125 259.578 635.582 258.008 636.496 256.844C637.41 255.672 638.621 255.086 640.129 255.086C641.676 255.086 642.883 255.633 643.75 256.727L643.855 255.32H645.836V267.695C645.836 269.336 645.348 270.629 644.371 271.574C643.402 272.52 642.098 272.992 640.457 272.992C639.543 272.992 638.648 272.797 637.773 272.406C636.898 272.016 636.23 271.48 635.77 270.801L636.895 269.5C637.824 270.648 638.961 271.223 640.305 271.223C641.359 271.223 642.18 270.926 642.766 270.332C643.359 269.738 643.656 268.902 643.656 267.824V266.734C642.789 267.734 641.605 268.234 640.105 268.234C638.621 268.234 637.418 267.637 636.496 266.441C635.582 265.246 635.125 263.617 635.125 261.555ZM637.305 261.801C637.305 263.23 637.598 264.355 638.184 265.176C638.77 265.988 639.59 266.395 640.645 266.395C642.012 266.395 643.016 265.773 643.656 264.531V258.742C642.992 257.531 641.996 256.926 640.668 256.926C639.613 256.926 638.789 257.336 638.195 258.156C637.602 258.977 637.305 260.191 637.305 261.801ZM655.246 257.266C654.918 257.211 654.562 257.184 654.18 257.184C652.758 257.184 651.793 257.789 651.285 259V268H649.117V255.32H651.227L651.262 256.785C651.973 255.652 652.98 255.086 654.285 255.086C654.707 255.086 655.027 255.141 655.246 255.25V257.266ZM656.441 261.543C656.441 260.301 656.684 259.184 657.168 258.191C657.66 257.199 658.34 256.434 659.207 255.895C660.082 255.355 661.078 255.086 662.195 255.086C663.922 255.086 665.316 255.684 666.379 256.879C667.449 258.074 667.984 259.664 667.984 261.648V261.801C667.984 263.035 667.746 264.145 667.27 265.129C666.801 266.105 666.125 266.867 665.242 267.414C664.367 267.961 663.359 268.234 662.219 268.234C660.5 268.234 659.105 267.637 658.035 266.441C656.973 265.246 656.441 263.664 656.441 261.695V261.543ZM658.621 261.801C658.621 263.207 658.945 264.336 659.594 265.188C660.25 266.039 661.125 266.465 662.219 266.465C663.32 266.465 664.195 266.035 664.844 265.176C665.492 264.309 665.816 263.098 665.816 261.543C665.816 260.152 665.484 259.027 664.82 258.168C664.164 257.301 663.289 256.867 662.195 256.867C661.125 256.867 660.262 257.293 659.605 258.145C658.949 258.996 658.621 260.215 658.621 261.801ZM678.531 266.746C677.688 267.738 676.449 268.234 674.816 268.234C673.465 268.234 672.434 267.844 671.723 267.062C671.02 266.273 670.664 265.109 670.656 263.57V255.32H672.824V263.512C672.824 265.434 673.605 266.395 675.168 266.395C676.824 266.395 677.926 265.777 678.473 264.543V255.32H680.641V268H678.578L678.531 266.746ZM694.656 261.801C694.656 263.73 694.215 265.285 693.332 266.465C692.449 267.645 691.254 268.234 689.746 268.234C688.207 268.234 686.996 267.746 686.113 266.77V272.875H683.945V255.32H685.926L686.031 256.727C686.914 255.633 688.141 255.086 689.711 255.086C691.234 255.086 692.438 255.66 693.32 256.809C694.211 257.957 694.656 259.555 694.656 261.602V261.801ZM692.488 261.555C692.488 260.125 692.184 258.996 691.574 258.168C690.965 257.34 690.129 256.926 689.066 256.926C687.754 256.926 686.77 257.508 686.113 258.672V264.73C686.762 265.887 687.754 266.465 689.09 266.465C690.129 266.465 690.953 266.055 691.562 265.234C692.18 264.406 692.488 263.18 692.488 261.555Z" fill="black"/>
<path d="M685.734 179.107C686.514 178.362 687.181 177.599 687.736 176.819C688.291 176.056 688.741 175.259 689.088 174.427C689.452 173.595 689.721 172.728 689.894 171.827C690.067 170.908 690.154 169.938 690.154 168.915C690.154 166.87 689.799 165.041 689.088 163.429C688.395 161.8 687.277 160.231 685.734 158.723L687.866 157.033C689.565 158.541 690.899 160.283 691.87 162.259C692.858 164.235 693.352 166.454 693.352 168.915C693.352 171.376 692.858 173.595 691.87 175.571C690.899 177.547 689.565 179.289 687.866 180.797L685.734 179.107Z" fill="#D55E00"/>
<path d="M328 14H697.063V62H328V14Z" fill="#F1F4F8"/>
<path d="M490.19 50.248C488.574 48.904 487.294 47.32 486.35 45.496C485.422 43.672 484.958 41.616 484.958 39.328C484.958 37.04 485.422 34.984 486.35 33.16C487.294 31.336 488.574 29.752 490.19 28.408L491.726 29.68C490.206 31.056 489.094 32.52 488.39 34.072C487.686 35.624 487.334 37.376 487.334 39.328C487.334 41.28 487.686 43.032 488.39 44.584C489.094 46.136 490.206 47.6 491.726 48.976L490.19 50.248ZM540.841 48.976C542.361 47.6 543.473 46.136 544.177 44.584C544.881 43.032 545.233 41.28 545.233 39.328C545.233 37.376 544.881 35.624 544.177 34.072C543.473 32.52 542.361 31.056 540.841 29.68L542.377 28.408C543.993 29.752 545.265 31.336 546.193 33.16C547.137 34.984 547.609 37.04 547.609 39.328C547.609 41.616 547.137 43.672 546.193 45.496C545.265 47.32 543.993 48.904 542.377 50.248L540.841 48.976Z" fill="#D55E00"/>
<path d="M497.717 42.088C498.309 42.616 498.973 43.048 499.709 43.384C500.461 43.704 501.221 43.864 501.989 43.864C502.949 43.864 503.677 43.68 504.173 43.312C504.669 42.944 504.917 42.456 504.917 41.848C504.917 41.528 504.853 41.256 504.725 41.032C504.597 40.808 504.413 40.616 504.173 40.456C503.949 40.28 503.669 40.12 503.333 39.976C503.013 39.832 502.661 39.688 502.277 39.544L500.141 38.608C499.725 38.448 499.317 38.248 498.917 38.008C498.517 37.768 498.157 37.48 497.837 37.144C497.517 36.808 497.261 36.416 497.069 35.968C496.877 35.52 496.781 35.008 496.781 34.432C496.781 33.808 496.917 33.232 497.189 32.704C497.461 32.16 497.837 31.688 498.317 31.288C498.797 30.888 499.365 30.576 500.021 30.352C500.693 30.128 501.429 30.016 502.229 30.016C503.189 30.016 504.101 30.2 504.965 30.568C505.845 30.92 506.613 31.4 507.269 32.008L505.829 33.784C505.301 33.368 504.749 33.04 504.173 32.8C503.597 32.56 502.949 32.44 502.229 32.44C501.413 32.44 500.765 32.608 500.285 32.944C499.821 33.264 499.589 33.712 499.589 34.288C499.589 34.592 499.661 34.856 499.805 35.08C499.949 35.288 500.141 35.48 500.381 35.656C500.637 35.816 500.925 35.96 501.245 36.088C501.581 36.216 501.925 36.352 502.277 36.496L504.341 37.384C504.837 37.576 505.293 37.8 505.709 38.056C506.125 38.312 506.485 38.608 506.789 38.944C507.093 39.28 507.325 39.672 507.485 40.12C507.661 40.552 507.749 41.056 507.749 41.632C507.749 42.272 507.613 42.872 507.341 43.432C507.085 43.992 506.709 44.488 506.213 44.92C505.717 45.336 505.109 45.672 504.389 45.928C503.669 46.168 502.853 46.288 501.941 46.288C500.837 46.288 499.781 46.088 498.773 45.688C497.765 45.288 496.869 44.72 496.085 43.984L497.717 42.088ZM512.947 38.08C512.947 38.96 513.019 39.76 513.163 40.48C513.323 41.2 513.539 41.816 513.811 42.328C514.099 42.824 514.443 43.208 514.843 43.48C515.259 43.752 515.723 43.888 516.235 43.888C516.731 43.888 517.179 43.752 517.579 43.48C517.995 43.208 518.339 42.824 518.611 42.328C518.899 41.816 519.115 41.2 519.259 40.48C519.419 39.76 519.499 38.96 519.499 38.08C519.499 36.32 519.203 34.936 518.611 33.928C518.035 32.92 517.243 32.416 516.235 32.416C515.211 32.416 514.403 32.92 513.811 33.928C513.235 34.936 512.947 36.32 512.947 38.08ZM522.691 49.672C522.419 49.8 522.115 49.896 521.779 49.96C521.443 50.04 521.067 50.08 520.651 50.08C519.179 50.08 517.963 49.712 517.003 48.976C516.059 48.24 515.363 47.296 514.915 46.144C514.195 45.984 513.539 45.68 512.947 45.232C512.355 44.784 511.843 44.216 511.411 43.528C510.995 42.84 510.675 42.04 510.451 41.128C510.227 40.2 510.115 39.184 510.115 38.08C510.115 36.816 510.259 35.688 510.547 34.696C510.851 33.688 511.267 32.84 511.795 32.152C512.339 31.464 512.987 30.936 513.739 30.568C514.491 30.2 515.323 30.016 516.235 30.016C517.147 30.016 517.979 30.2 518.731 30.568C519.483 30.936 520.123 31.464 520.651 32.152C521.195 32.84 521.611 33.688 521.899 34.696C522.203 35.688 522.355 36.816 522.355 38.08C522.355 40.24 521.947 42.016 521.131 43.408C520.315 44.784 519.219 45.672 517.843 46.072C518.115 46.68 518.531 47.12 519.091 47.392C519.651 47.68 520.275 47.824 520.963 47.824C521.203 47.824 521.427 47.792 521.635 47.728C521.843 47.68 522.027 47.616 522.187 47.536L522.691 49.672ZM526.354 30.304H529.114V43.648H536.482V46H526.354V30.304Z" fill="#B82629"/>
</svg>
